<?xml version="1.0" standalone="no"?>
<!DOCTYPE svg PUBLIC "-//W3C//DTD SVG 20010904//EN"
 "http://www.w3.org/TR/2001/REC-SVG-20010904/DTD/svg10.dtd">
<svg version="1.0" xmlns="http://www.w3.org/2000/svg"
 width="416.000000pt" height="262.000000pt" viewBox="0 0 416.000000 262.000000"
 preserveAspectRatio="xMidYMid meet">

<g transform="translate(0.000000,262.000000) scale(0.100000,-0.100000)"
fill="#000000" stroke="none">
<path d="M683 2434 c-121 -26 -229 -127 -266 -248 -9 -31 -12 -219 -12 -781 0
-407 4 -765 8 -796 11 -77 68 -171 132 -219 103 -78 -19 -72 1569 -71 780 1
1431 4 1445 7 48 12 141 67 173 103 17 19 43 60 57 91 l26 55 3 785 c2 592 0
796 -9 829 -19 69 -81 153 -143 194 -105 70 -42 67 -1561 66 -1102 -1 -1372
-4 -1422 -15z m1107 -1044 l0 -330 -330 0 -330 0 0 330 0 330 330 0 330 0 0
-330z m1310 298 c1 -46 2 -625 1 -635 -1 -10 -74 -13 -329 -13 -181 0 -331 2
-333 4 -2 2 -3 151 -1 330 l3 326 329 0 c257 0 330 -3 330 -12z"/>
<path d="M1182 1390 l3 -281 273 0 c150 0 277 3 282 6 4 3 8 128 7 278 l-2
272 -283 3 -282 2 2 -280z m168 191 c0 -80 -1 -81 -91 -81 l-59 0 0 75 0 75
75 0 75 0 0 -69z m178 -3 l-3 -73 -58 -3 c-78 -4 -87 5 -87 84 l0 64 75 0 76
0 -3 -72z m192 2 c0 -80 -5 -84 -96 -78 l-49 3 -3 73 -3 72 76 0 75 0 0 -70z
m-372 -187 l3 -73 -76 0 -75 0 0 75 0 76 73 -3 72 -3 3 -72z m180 5 l-3 -73
-70 0 -70 0 -3 49 c-6 91 -2 96 79 96 l70 0 -3 -72z m190 -5 l3 -73 -76 0 -75
0 0 75 0 76 73 -3 72 -3 3 -72z m-370 -185 l-3 -73 -72 -3 -73 -3 0 76 0 75
75 0 76 0 -3 -72z m182 -3 l0 -75 -69 0 c-80 0 -81 1 -81 91 l0 59 75 0 75 0
0 -75z m188 3 l-3 -73 -72 -3 -73 -3 0 76 0 75 75 0 76 0 -3 -72z"/>
<path d="M2492 1643 c-4 -10 -8 -137 -7 -283 l0 -265 285 0 285 0 3 269 c2
190 -1 273 -9 282 -9 11 -65 14 -280 14 -246 0 -269 -1 -277 -17z m158 -88 l0
-75 -69 0 -69 0 0 68 c0 37 2 70 5 75 2 4 33 7 69 7 l64 0 0 -75z m191 65 c0
-5 0 -38 1 -72 l0 -63 -76 -3 -76 -3 0 69 c0 38 3 72 7 75 10 11 143 8 144 -3z
m184 -65 l0 -70 -73 -3 -73 -3 2 76 2 76 71 -3 71 -3 0 -70z m-375 -190 l0
-76 -67 3 -68 3 -3 73 -3 72 71 0 70 0 0 -75z m192 13 c0 -32 -1 -65 -1 -73
-1 -13 -14 -15 -73 -13 l-73 3 -3 73 -3 73 77 -3 77 -3 -1 -57z m188 3 c0 -90
-1 -91 -81 -91 l-69 0 0 75 0 75 75 0 75 0 0 -59z m-380 -196 l0 -76 -67 3
-68 3 -2 60 c-1 33 0 66 2 73 3 8 26 12 70 12 l65 0 0 -75z m191 68 c0 -5 1
-37 2 -73 l2 -65 -78 -3 -77 -3 0 70 c0 46 4 71 13 74 20 8 137 8 138 0z m184
-16 c4 -13 5 -46 3 -73 l-3 -49 -70 0 -70 0 -3 59 c-4 84 -3 86 72 86 60 0 66
-2 71 -23z"/>
</g>
</svg>
